<svg width="1600" height="1000" viewBox="0 0 1600 1000" fill="none" xmlns="http://www.w3.org/2000/svg">
  <defs>
    <linearGradient id="bg" x1="0" y1="0" x2="1" y2="1">
      <stop offset="0%" stop-color="#F7F7F7" />
      <stop offset="100%" stop-color="#FFFFFF" />
    </linearGradient>
    <linearGradient id="accent" x1="0" y1="0" x2="1" y2="0">
      <stop offset="0%" stop-color="#A00000" />
      <stop offset="100%" stop-color="#7A0000" />
    </linearGradient>
  </defs>
  <rect width="1600" height="1000" fill="url(#bg)" />
  <polygon points="0,740 520,480 1100,720 1600,520 1600,1000 0,1000" fill="#ECECEC" />
  <polygon points="90,680 520,420 1110,680 980,760 520,520 210,700" fill="#FFFFFF" />
  <polygon points="520,330 1020,600 1020,840 520,580 320,720 320,470" fill="#111111" opacity="0.85" />
  <rect x="380" y="560" width="180" height="220" rx="16" fill="#F7F7F7" stroke="#DDDDDD" />
  <rect x="620" y="520" width="180" height="260" rx="16" fill="#A00000" opacity="0.9" />
  <rect x="860" y="560" width="180" height="220" rx="16" fill="#F7F7F7" stroke="#DDDDDD" />
  <path d="M0 820H1600" stroke="url(#accent)" stroke-width="18" />
  <circle cx="1320" cy="240" r="140" fill="#F1E6E6" />
  <circle cx="1320" cy="240" r="60" fill="url(#accent)" opacity="0.6" />
</svg>
