<svg width="1600" height="1000" viewBox="0 0 1600 1000" fill="none" xmlns="http://www.w3.org/2000/svg">
  <defs>
    <linearGradient id="bg" x1="0" y1="0" x2="1" y2="1">
      <stop offset="0%" stop-color="#F7F2E9" />
      <stop offset="100%" stop-color="#FFFDF8" />
    </linearGradient>
    <linearGradient id="sky" x1="0" y1="0" x2="0" y2="1">
      <stop offset="0%" stop-color="#17344B" />
      <stop offset="100%" stop-color="#A46A43" />
    </linearGradient>
    <linearGradient id="glass" x1="0" y1="0" x2="1" y2="0">
      <stop offset="0%" stop-color="#E8D9C8" />
      <stop offset="100%" stop-color="#FFF8F0" />
    </linearGradient>
  </defs>
  <rect width="1600" height="1000" fill="url(#bg)" />
  <rect x="0" y="0" width="1600" height="380" fill="url(#sky)" opacity="0.95" />
  <circle cx="1280" cy="190" r="96" fill="#E5B06E" opacity="0.9" />
  <path d="M0 720L280 600L520 676L800 566L1130 706L1600 560V1000H0V720Z" fill="#E8DCCA" />
  <path d="M180 760L520 500L840 700L1080 560L1400 760V1000H180V760Z" fill="#FFF9F2" />
  <path d="M560 705L825 450L1100 705V1000H560V705Z" fill="#17344B" opacity="0.95" />
  <rect x="640" y="650" width="110" height="140" rx="10" fill="#FFF9F2" />
  <rect x="790" y="610" width="110" height="180" rx="10" fill="#A46A43" />
  <rect x="940" y="650" width="110" height="140" rx="10" fill="#FFF9F2" />
  <rect x="640" y="500" width="410" height="56" rx="28" fill="url(#glass)" opacity="0.92" />
  <path d="M120 878H1480" stroke="#A46A43" stroke-width="18" stroke-linecap="round" />
  <path d="M230 836C270 774 320 744 374 744C436 744 488 786 514 836" stroke="#17344B" stroke-width="10" stroke-linecap="round" />
  <path d="M1084 836C1124 774 1174 744 1228 744C1290 744 1342 786 1368 836" stroke="#17344B" stroke-width="10" stroke-linecap="round" />
</svg>
